<svg width="14" height="14" viewBox="0 0 14 14" fill="none" xmlns="http://www.w3.org/2000/svg">
<path d="M4.66675 3.35425C4.42758 3.35425 4.22925 3.15591 4.22925 2.91675V1.16675C4.22925 0.927581 4.42758 0.729248 4.66675 0.729248C4.90591 0.729248 5.10425 0.927581 5.10425 1.16675V2.91675C5.10425 3.15591 4.90591 3.35425 4.66675 3.35425Z" fill="#18A0FB"/>
<path d="M9.33325 3.35425C9.09409 3.35425 8.89575 3.15591 8.89575 2.91675V1.16675C8.89575 0.927581 9.09409 0.729248 9.33325 0.729248C9.57242 0.729248 9.77075 0.927581 9.77075 1.16675V2.91675C9.77075 3.15591 9.57242 3.35425 9.33325 3.35425Z" fill="#18A0FB"/>
<path d="M8.75 13.2709H5.25C1.97167 13.2709 1.3125 11.7251 1.3125 9.22841V5.62925C1.3125 2.86425 2.24583 1.73841 4.64333 1.60425H9.33333C9.33917 1.60425 9.35083 1.60425 9.35667 1.60425C11.7542 1.73841 12.6875 2.86425 12.6875 5.62925V9.22841C12.6875 11.7251 12.0283 13.2709 8.75 13.2709ZM4.66667 2.47925C3.03333 2.57258 2.1875 3.08591 2.1875 5.62925V9.22841C2.1875 11.4626 2.61333 12.3959 5.25 12.3959H8.75C11.3867 12.3959 11.8125 11.4626 11.8125 9.22841V5.62925C11.8125 3.09175 10.9725 2.57258 9.32167 2.47925H4.66667Z" fill="#18A0FB"/>
<path d="M12.1041 10.7041H1.89575C1.65659 10.7041 1.45825 10.5058 1.45825 10.2666C1.45825 10.0274 1.65659 9.8291 1.89575 9.8291H12.1041C12.3433 9.8291 12.5416 10.0274 12.5416 10.2666C12.5416 10.5058 12.3433 10.7041 12.1041 10.7041Z" fill="#18A0FB"/>
<path d="M7.00008 4.8125C6.28258 4.8125 5.67591 5.20333 5.67591 5.96167C5.67591 6.32333 5.84508 6.5975 6.10175 6.7725C5.74591 6.9825 5.54175 7.32083 5.54175 7.7175C5.54175 8.44083 6.09591 8.89 7.00008 8.89C7.89841 8.89 8.45841 8.44083 8.45841 7.7175C8.45841 7.32083 8.25425 6.97667 7.89258 6.7725C8.15508 6.59167 8.31841 6.32333 8.31841 5.96167C8.31841 5.20333 7.71758 4.8125 7.00008 4.8125ZM7.00008 6.46917C6.69675 6.46917 6.47508 6.28833 6.47508 6.0025C6.47508 5.71083 6.69675 5.54167 7.00008 5.54167C7.30341 5.54167 7.52508 5.71083 7.52508 6.0025C7.52508 6.28833 7.30341 6.46917 7.00008 6.46917ZM7.00008 8.16667C6.61508 8.16667 6.33508 7.97417 6.33508 7.62417C6.33508 7.27417 6.61508 7.0875 7.00008 7.0875C7.38508 7.0875 7.66508 7.28 7.66508 7.62417C7.66508 7.97417 7.38508 8.16667 7.00008 8.16667Z" fill="#18A0FB"/>
</svg>
