<svg width="158" height="85" viewBox="0 0 158 85" fill="none" xmlns="http://www.w3.org/2000/svg">
<path d="M103.368 24.3678C103.368 37.8257 92.458 48.7355 79.0001 48.7355C65.5421 48.7355 54.6323 37.8257 54.6323 24.3678C54.6323 10.9098 65.5421 0 79.0001 0C92.458 0 103.368 10.9098 103.368 24.3678Z" fill="white"/>
<path d="M94.539 21.6129C95.2381 21.8603 95.6036 22.626 95.3562 23.325L95.359 23.3231L93.6021 28.2986C93.2765 29.217 92.6661 30.0084 91.8609 30.5548L82.963 36.5932C82.4716 36.9267 81.8052 36.7991 81.4717 36.3077L80.2659 34.5309C79.9324 34.0395 80.06 33.373 80.5514 33.0396L81.5731 32.3462L82.1414 30.5008C82.4306 29.5706 83.0269 28.7645 83.8348 28.2162L88.2297 25.2338C88.7211 24.9003 89.3875 25.0279 89.721 25.5193C90.0544 26.0107 89.9269 26.6771 89.4355 27.0106L87.2144 28.5178C86.9701 28.6836 86.9059 29.0192 87.0717 29.2635C87.2375 29.5078 87.573 29.572 87.8174 29.4062L91.1655 27.134L92.827 22.4301C93.0743 21.7311 93.84 21.3656 94.539 21.6129Z" fill="#18A0FB"/>
<path d="M63.0249 21.6129C62.3259 21.8603 61.9604 22.626 62.2077 23.325L62.2049 23.3231L63.9619 28.2986C64.2874 29.217 64.8979 30.0084 65.703 30.5547L74.6009 36.5932C75.0923 36.9267 75.7588 36.7991 76.0922 36.3077L77.298 34.5309C77.6315 34.0395 77.5039 33.373 77.0125 33.0396L75.9909 32.3462L75.4226 30.5008C75.1334 29.5706 74.537 28.7645 73.7291 28.2162L69.3343 25.2337C68.8429 24.9003 68.1765 25.0279 67.843 25.5193C67.5095 26.0106 67.6371 26.6771 68.1285 27.0106L70.3495 28.5178C70.5938 28.6836 70.6581 29.0191 70.4923 29.2635C70.3265 29.5078 69.9909 29.572 69.7466 29.4062L66.3984 27.134L64.737 22.4301C64.4896 21.7311 63.724 21.3656 63.0249 21.6129Z" fill="#18A0FB"/>
<path fill-rule="evenodd" clip-rule="evenodd" d="M85.8319 13.8363C86.3301 14.3515 86.7285 14.9646 87.0048 15.6411C87.2913 16.3452 87.4377 17.0929 87.4356 17.8623C87.4356 18.5882 87.2954 19.3446 87.0172 20.1141C86.7863 20.7571 86.4503 21.4241 86.0236 22.0977C85.3475 23.1636 84.4179 24.2753 83.2636 25.4022C81.3487 27.2703 79.4565 28.5586 79.3761 28.6131L78.8876 28.9444C78.6711 29.0905 78.3929 29.0905 78.1764 28.9444L77.6879 28.6131C77.6075 28.5608 75.7132 27.2703 73.8004 25.4022C72.6461 24.2753 71.7165 23.1636 71.0404 22.0977C70.6137 21.4241 70.2798 20.7571 70.0469 20.1141C69.7686 19.3446 69.6284 18.5882 69.6284 17.8623C69.6284 17.0929 69.7748 16.3452 70.0613 15.6411C70.3368 14.9642 70.7353 14.351 71.2341 13.8363C71.735 13.3175 72.3184 12.9098 72.9656 12.6265C73.6355 12.3322 74.3446 12.184 75.0763 12.184C76.0925 12.184 77.084 12.4782 77.9456 13.0341C78.1517 13.1671 78.3475 13.3131 78.533 13.4722C78.7186 13.3131 78.9144 13.1671 79.1205 13.0341C79.9821 12.4782 80.9736 12.184 81.9898 12.184C82.7141 12.1822 83.4316 12.3326 84.1005 12.6265C84.7456 12.9087 85.3334 13.3194 85.8319 13.8363ZM78.3497 21.0424V23.207H79.424V21.0424H81.5887V19.968H79.424V17.8074H78.3497V19.968H76.189V21.0424H78.3497Z" fill="#18A0FB"/>
<path d="M10.9113 81.1172C9.54675 81.1172 8.29166 80.8898 7.14608 80.4349C6.01734 79.9632 5.04022 79.3146 4.21473 78.4891C3.38923 77.6636 2.74905 76.6949 2.29419 75.583C1.85617 74.4711 1.63716 73.2666 1.63716 71.9694C1.63716 70.6722 1.86459 69.476 2.31946 68.381C2.79117 67.2691 3.4482 66.3088 4.29054 65.5002C5.14973 64.6747 6.15212 64.0345 7.2977 63.5796C8.44329 63.1248 9.69837 62.8973 11.063 62.8973C12.0064 62.8973 12.9077 63.0237 13.7669 63.2764C14.6261 63.5291 15.4095 63.8745 16.117 64.3125C16.8246 64.7505 17.4142 65.2559 17.8859 65.8287L15.5358 68.3052C15.0978 67.884 14.6345 67.5302 14.1459 67.2438C13.6742 66.9406 13.1772 66.7132 12.655 66.5615C12.1327 66.3931 11.5936 66.3088 11.0377 66.3088C10.2459 66.3088 9.51306 66.452 8.83919 66.7384C8.18216 67.0248 7.60094 67.4207 7.09554 67.9261C6.59013 68.4315 6.19423 69.0296 5.90784 69.7203C5.63829 70.411 5.50351 71.1607 5.50351 71.9694C5.50351 72.7612 5.64671 73.5109 5.93311 74.2184C6.23635 74.9091 6.64067 75.5156 7.14608 76.0379C7.66833 76.5433 8.27482 76.9476 8.96554 77.2509C9.65626 77.5373 10.3975 77.6804 11.1893 77.6804C11.7453 77.6804 12.2759 77.5962 12.7813 77.4277C13.2868 77.2593 13.7248 77.0234 14.0954 76.7202C14.4829 76.4001 14.7777 76.0295 14.9799 75.6083C15.1989 75.1871 15.3084 74.7407 15.3084 74.269V73.6625L15.8138 74.37H10.7597V71.2113H18.9473C18.9641 71.3966 18.981 71.624 18.9978 71.8936C19.0315 72.1631 19.0484 72.4327 19.0484 72.7022C19.0652 72.9549 19.0736 73.1571 19.0736 73.3087C19.0736 74.4543 18.8631 75.5072 18.4419 76.4675C18.0376 77.4277 17.4648 78.2532 16.7235 78.944C15.9991 79.6347 15.1399 80.1738 14.1459 80.5613C13.152 80.9319 12.0738 81.1172 10.9113 81.1172ZM22.4186 80.8645V63.1753H34.3714V66.511H26.1081V77.5288H34.5483V80.8645H22.4186ZM24.1875 73.4603V70.2257H33.1585V73.4603H24.1875ZM42.1487 80.8645V66.5868H36.9936V63.1753H51.246V66.5868H45.9393V80.8645H42.1487ZM54.3766 80.8645V63.1753H57.8386L64.2825 73.6625L62.0082 73.6372L68.5279 63.1753H71.8383V80.8645H68.1236V74.7996C68.1236 73.2834 68.1573 71.9188 68.2247 70.7059C68.3089 69.4929 68.4437 68.2883 68.629 67.0922L69.0839 68.2799L63.9035 76.3159H62.2356L57.1563 68.3305L57.5859 67.0922C57.7712 68.2209 57.8976 69.3834 57.965 70.5795C58.0492 71.7588 58.0913 73.1655 58.0913 74.7996V80.8645H54.3766ZM76.4387 80.8645V63.1753H88.3915V66.511H80.1282V77.5288H88.5684V80.8645H76.4387ZM78.2076 73.4603V70.2257H87.1786V73.4603H78.2076ZM92.4794 80.8645V63.1753H99.732C101.029 63.1753 102.2 63.3943 103.245 63.8323C104.306 64.2535 105.216 64.86 105.974 65.6518C106.749 66.4268 107.338 67.3533 107.743 68.4315C108.147 69.5097 108.349 70.7059 108.349 72.0199C108.349 73.3171 108.147 74.5132 107.743 75.6083C107.338 76.6865 106.757 77.6215 105.999 78.4133C105.241 79.1882 104.331 79.7947 103.27 80.2327C102.208 80.6539 101.029 80.8645 99.732 80.8645H92.4794ZM96.2699 78.11L95.8656 77.453H99.6056C100.364 77.453 101.046 77.3267 101.653 77.074C102.259 76.8044 102.773 76.4422 103.194 75.9873C103.632 75.5156 103.961 74.9428 104.18 74.269C104.399 73.5951 104.508 72.8454 104.508 72.0199C104.508 71.1944 104.399 70.4532 104.18 69.7961C103.961 69.1223 103.632 68.5495 103.194 68.0777C102.773 67.606 102.259 67.2438 101.653 66.9911C101.046 66.7216 100.364 66.5868 99.6056 66.5868H95.7898L96.2699 65.9803V78.11ZM110.953 80.8645V77.6046H113.909V66.4352H110.953V63.1753H120.656V66.4352H117.7V77.6046H120.656V80.8645H110.953ZM132.195 81.1172C130.898 81.1172 129.702 80.8982 128.607 80.4602C127.529 80.0053 126.585 79.3736 125.777 78.5649C124.985 77.7394 124.37 76.7707 123.932 75.6588C123.494 74.5301 123.275 73.3003 123.275 71.9694C123.275 70.6722 123.502 69.476 123.957 68.381C124.412 67.2691 125.052 66.3088 125.878 65.5002C126.703 64.6747 127.672 64.0345 128.784 63.5796C129.896 63.1248 131.1 62.8973 132.398 62.8973C133.24 62.8973 134.065 63.0153 134.874 63.2511C135.7 63.4701 136.449 63.7987 137.123 64.2367C137.814 64.6747 138.403 65.1969 138.892 65.8034L136.517 68.4315C136.112 68.0272 135.691 67.6818 135.253 67.3955C134.832 67.0922 134.377 66.8648 133.888 66.7132C133.417 66.5447 132.911 66.4605 132.372 66.4605C131.648 66.4605 130.966 66.5952 130.325 66.8648C129.702 67.1343 129.155 67.5134 128.683 68.0019C128.211 68.4737 127.832 69.0549 127.546 69.7456C127.276 70.4195 127.141 71.1691 127.141 71.9946C127.141 72.837 127.276 73.6035 127.546 74.2942C127.815 74.9681 128.194 75.5493 128.683 76.0379C129.171 76.5096 129.753 76.8802 130.426 77.1498C131.117 77.4025 131.875 77.5288 132.701 77.5288C133.24 77.5288 133.762 77.453 134.268 77.3014C134.773 77.1498 135.236 76.9392 135.657 76.6696C136.095 76.4001 136.483 76.0884 136.82 75.7346L138.665 78.6913C138.26 79.1461 137.713 79.5589 137.022 79.9295C136.348 80.3001 135.59 80.595 134.748 80.814C133.905 81.0161 133.055 81.1172 132.195 81.1172ZM139.763 80.8645L146.687 63.1753H150.073L156.972 80.8645H153.08L149.517 71.3376C149.416 71.0681 149.29 70.7227 149.138 70.3015C149.003 69.8804 148.86 69.4339 148.708 68.9622C148.557 68.4905 148.413 68.0441 148.279 67.6229C148.144 67.1849 148.043 66.8227 147.975 66.5363L148.658 66.511C148.557 66.8985 148.439 67.3028 148.304 67.724C148.186 68.1283 148.06 68.5495 147.925 68.9875C147.79 69.4087 147.647 69.8214 147.495 70.2257C147.344 70.63 147.2 71.0259 147.066 71.4134L143.503 80.8645H139.763ZM142.972 77.1498L144.21 74.0921H152.322L153.585 77.1498H142.972Z" fill="white"/>
</svg>
