<svg width="30" height="30" viewBox="0 0 30 30" fill="none" xmlns="http://www.w3.org/2000/svg">
<rect width="30" height="30" rx="15" fill="#18A0FB" fill-opacity="0.1"/>
<path d="M16.6876 19.7364C16.5556 19.7364 16.4237 19.6877 16.3195 19.5836C16.1181 19.3822 16.1181 19.0489 16.3195 18.8475L20.1667 15.0002L16.3195 11.153C16.1181 10.9516 16.1181 10.6183 16.3195 10.4169C16.5209 10.2155 16.8542 10.2155 17.0556 10.4169L21.2709 14.6322C21.4723 14.8336 21.4723 15.1669 21.2709 15.3683L17.0556 19.5836C16.9514 19.6877 16.8195 19.7364 16.6876 19.7364Z" fill="#18A0FB"/>
<path d="M20.7847 15.5209H9.09725C8.81253 15.5209 8.57642 15.2848 8.57642 15.0001C8.57642 14.7154 8.81253 14.4792 9.09725 14.4792H20.7847C21.0695 14.4792 21.3056 14.7154 21.3056 15.0001C21.3056 15.2848 21.0695 15.5209 20.7847 15.5209Z" fill="#18A0FB"/>
</svg>
