<svg width="48" height="48" viewBox="0 0 48 48" fill="none" xmlns="http://www.w3.org/2000/svg">
<rect x="0.6" y="0.6" width="46.8" height="46.8" rx="23.4" fill="#18A0FB"/>
<rect x="0.6" y="0.6" width="46.8" height="46.8" rx="23.4" stroke="#E9EDEE" stroke-width="1.2"/>
<path d="M24.0241 34.236C21.2281 34.236 18.4321 33.792 15.7801 32.904C14.7721 32.556 14.0041 31.848 13.6681 30.924C13.3201 30 13.4401 28.98 13.9921 28.068L15.3721 25.776C15.6601 25.296 15.9241 24.336 15.9241 23.772V20.304C15.9241 15.84 19.5601 12.204 24.0241 12.204C28.4881 12.204 32.1241 15.84 32.1241 20.304V23.772C32.1241 24.324 32.3881 25.296 32.6761 25.788L34.0441 28.068C34.5601 28.932 34.6561 29.976 34.3081 30.924C33.9601 31.872 33.2041 32.592 32.2561 32.904C29.6161 33.792 26.8201 34.236 24.0241 34.236ZM24.0241 14.004C20.5561 14.004 17.7241 16.824 17.7241 20.304V23.772C17.7241 24.648 17.3641 25.944 16.9201 26.7L15.5401 28.992C15.2761 29.436 15.2041 29.904 15.3601 30.3C15.5041 30.708 15.8641 31.02 16.3561 31.188C21.3721 32.868 26.6881 32.868 31.7041 31.188C32.1361 31.044 32.4721 30.72 32.6281 30.288C32.7841 29.856 32.7481 29.388 32.5081 28.992L31.1281 26.7C30.6721 25.92 30.3241 24.636 30.3241 23.76V20.304C30.3241 16.824 27.5041 14.004 24.0241 14.004Z" fill="white"/>
<path d="M26.2564 14.328C26.1724 14.328 26.0884 14.316 26.0044 14.292C25.6564 14.196 25.3204 14.124 24.9964 14.076C23.9764 13.944 22.9924 14.016 22.0684 14.292C21.7324 14.4 21.3724 14.292 21.1444 14.04C20.9164 13.788 20.8444 13.428 20.9764 13.104C21.4684 11.844 22.6684 11.016 24.0364 11.016C25.4044 11.016 26.6044 11.832 27.0964 13.104C27.2164 13.428 27.1564 13.788 26.9284 14.04C26.7484 14.232 26.4964 14.328 26.2564 14.328Z" fill="white"/>
<path d="M24.0239 36.972C22.8359 36.972 21.6839 36.492 20.8439 35.652C20.0039 34.812 19.5239 33.66 19.5239 32.472H21.3239C21.3239 33.18 21.6119 33.876 22.1159 34.38C22.6199 34.884 23.3159 35.172 24.0239 35.172C25.5119 35.172 26.7239 33.96 26.7239 32.472H28.5239C28.5239 34.956 26.5079 36.972 24.0239 36.972Z" fill="white"/>
</svg>
