<svg width="14" height="14" viewBox="0 0 14 14" fill="none" xmlns="http://www.w3.org/2000/svg">
<mask id="path-1-inside-1_9_10640" fill="white">
<path d="M10.3016 13.2242C9.99241 13.2242 9.59574 13.125 9.09991 12.8334L7.35574 11.8009C7.17491 11.6959 6.82491 11.6959 6.64991 11.8009L4.89991 12.8334C3.86741 13.4459 3.26074 13.2009 2.98657 13.0025C2.71824 12.8042 2.29824 12.2967 2.57241 11.13L2.98657 9.33919C3.03324 9.15252 2.93991 8.83169 2.79991 8.69169L1.35324 7.24502C0.629906 6.52169 0.688239 5.90335 0.787406 5.60002C0.886573 5.29669 1.20157 4.76002 2.20491 4.59085L4.06574 4.28169C4.24074 4.25252 4.49157 4.06585 4.56741 3.90835L5.59991 1.84919C6.06657 0.91002 6.67907 0.77002 6.99991 0.77002C7.32074 0.77002 7.93324 0.91002 8.39991 1.84919L9.42657 3.90252C9.50824 4.06002 9.75907 4.24669 9.93407 4.27585L11.7949 4.58502C12.8041 4.75419 13.1191 5.29085 13.2124 5.59419C13.3057 5.89752 13.3641 6.51585 12.6466 7.23919L11.1999 8.69169C11.0599 8.83169 10.9724 9.14669 11.0132 9.33919L11.4274 11.13C11.6957 12.2967 11.2816 12.8042 11.0132 13.0025C10.8674 13.1075 10.6341 13.2242 10.3016 13.2242ZM6.99991 10.8442C7.28574 10.8442 7.57157 10.9142 7.79907 11.0484L9.54324 12.0809C10.0507 12.3842 10.3716 12.3842 10.4941 12.2967C10.6166 12.2092 10.7041 11.9 10.5757 11.3284L10.1616 9.53752C10.0507 9.05335 10.2316 8.42919 10.5816 8.07335L12.0282 6.62669C12.3141 6.34085 12.4424 6.06085 12.3841 5.86835C12.3199 5.67585 12.0516 5.51835 11.6549 5.45419L9.79407 5.14502C9.34491 5.06919 8.85491 4.70752 8.65074 4.29919L7.62407 2.24585C7.43741 1.87252 7.20407 1.65085 6.99991 1.65085C6.79574 1.65085 6.56241 1.87252 6.38157 2.24585L5.34907 4.29919C5.14491 4.70752 4.65491 5.06919 4.20574 5.14502L2.35074 5.45419C1.95407 5.51835 1.68574 5.67585 1.62157 5.86835C1.55741 6.06085 1.69157 6.34669 1.97741 6.62669L3.42407 8.07335C3.77407 8.42335 3.95491 9.05335 3.84407 9.53752L3.42991 11.3284C3.29574 11.9059 3.38907 12.2092 3.51157 12.2967C3.63407 12.3842 3.94907 12.3784 4.46241 12.0809L6.20657 11.0484C6.42824 10.9142 6.71407 10.8442 6.99991 10.8442Z"/>
</mask>
<path d="M10.3016 13.2242C9.99241 13.2242 9.59574 13.125 9.09991 12.8334L7.35574 11.8009C7.17491 11.6959 6.82491 11.6959 6.64991 11.8009L4.89991 12.8334C3.86741 13.4459 3.26074 13.2009 2.98657 13.0025C2.71824 12.8042 2.29824 12.2967 2.57241 11.13L2.98657 9.33919C3.03324 9.15252 2.93991 8.83169 2.79991 8.69169L1.35324 7.24502C0.629906 6.52169 0.688239 5.90335 0.787406 5.60002C0.886573 5.29669 1.20157 4.76002 2.20491 4.59085L4.06574 4.28169C4.24074 4.25252 4.49157 4.06585 4.56741 3.90835L5.59991 1.84919C6.06657 0.91002 6.67907 0.77002 6.99991 0.77002C7.32074 0.77002 7.93324 0.91002 8.39991 1.84919L9.42657 3.90252C9.50824 4.06002 9.75907 4.24669 9.93407 4.27585L11.7949 4.58502C12.8041 4.75419 13.1191 5.29085 13.2124 5.59419C13.3057 5.89752 13.3641 6.51585 12.6466 7.23919L11.1999 8.69169C11.0599 8.83169 10.9724 9.14669 11.0132 9.33919L11.4274 11.13C11.6957 12.2967 11.2816 12.8042 11.0132 13.0025C10.8674 13.1075 10.6341 13.2242 10.3016 13.2242ZM6.99991 10.8442C7.28574 10.8442 7.57157 10.9142 7.79907 11.0484L9.54324 12.0809C10.0507 12.3842 10.3716 12.3842 10.4941 12.2967C10.6166 12.2092 10.7041 11.9 10.5757 11.3284L10.1616 9.53752C10.0507 9.05335 10.2316 8.42919 10.5816 8.07335L12.0282 6.62669C12.3141 6.34085 12.4424 6.06085 12.3841 5.86835C12.3199 5.67585 12.0516 5.51835 11.6549 5.45419L9.79407 5.14502C9.34491 5.06919 8.85491 4.70752 8.65074 4.29919L7.62407 2.24585C7.43741 1.87252 7.20407 1.65085 6.99991 1.65085C6.79574 1.65085 6.56241 1.87252 6.38157 2.24585L5.34907 4.29919C5.14491 4.70752 4.65491 5.06919 4.20574 5.14502L2.35074 5.45419C1.95407 5.51835 1.68574 5.67585 1.62157 5.86835C1.55741 6.06085 1.69157 6.34669 1.97741 6.62669L3.42407 8.07335C3.77407 8.42335 3.95491 9.05335 3.84407 9.53752L3.42991 11.3284C3.29574 11.9059 3.38907 12.2092 3.51157 12.2967C3.63407 12.3842 3.94907 12.3784 4.46241 12.0809L6.20657 11.0484C6.42824 10.9142 6.71407 10.8442 6.99991 10.8442Z" fill="#18A0FB"/>
<path d="M9.09991 12.8334L8.5905 13.6939L8.59289 13.6953L9.09991 12.8334ZM7.35574 11.8009L7.86517 10.9403L7.85787 10.9361L7.35574 11.8009ZM6.64991 11.8009L7.15807 12.6621L7.1644 12.6583L6.64991 11.8009ZM4.89991 12.8334L4.39176 11.9721L4.3897 11.9733L4.89991 12.8334ZM2.98657 13.0025L2.39215 13.8067L2.40045 13.8127L2.98657 13.0025ZM2.57241 11.13L3.54589 11.3588L3.54669 11.3553L2.57241 11.13ZM2.98657 9.33919L2.01643 9.09665L2.01428 9.10524L2.01229 9.11386L2.98657 9.33919ZM2.79991 8.69169L3.50701 7.98458H3.50701L2.79991 8.69169ZM1.35324 7.24502L0.646132 7.95213H0.646133L1.35324 7.24502ZM2.20491 4.59085L2.04101 3.60437L2.03865 3.60477L2.20491 4.59085ZM4.06574 4.28169L4.22964 5.26816L4.23014 5.26808L4.06574 4.28169ZM4.56741 3.90835L3.67349 3.46013L3.66989 3.4673L3.6664 3.47454L4.56741 3.90835ZM5.59991 1.84919L6.49383 2.29742L6.49544 2.29417L5.59991 1.84919ZM8.39991 1.84919L7.50437 2.29417L7.50548 2.2964L8.39991 1.84919ZM9.42657 3.90252L8.53215 4.34973L8.53543 4.35631L8.53882 4.36284L9.42657 3.90252ZM9.93407 4.27585L9.76967 5.26225L9.77017 5.26233L9.93407 4.27585ZM11.7949 4.58502L11.9602 3.59878L11.9588 3.59854L11.7949 4.58502ZM12.6466 7.23919L13.3551 7.94487L13.3565 7.94342L12.6466 7.23919ZM11.1999 8.69169L11.907 9.39879L11.9084 9.39737L11.1999 8.69169ZM11.0132 9.33919L10.035 9.54669L10.0369 9.55562L10.039 9.56451L11.0132 9.33919ZM11.4274 11.13L12.402 10.9059L12.4017 10.9047L11.4274 11.13ZM11.0132 13.0025L11.5976 13.8141L11.6076 13.8067L11.0132 13.0025ZM7.79907 11.0484L8.30848 10.1878L8.30706 10.187L7.79907 11.0484ZM9.54324 12.0809L10.0563 11.2225L10.0526 11.2203L9.54324 12.0809ZM10.5757 11.3284L11.5515 11.1093L11.55 11.103L10.5757 11.3284ZM10.1616 9.53752L9.18678 9.76066L9.18729 9.76284L10.1616 9.53752ZM10.5816 8.07335L9.87444 7.36622L9.86865 7.37211L10.5816 8.07335ZM12.0282 6.62669L12.7353 7.33379H12.7353L12.0282 6.62669ZM12.3841 5.86835L13.3411 5.57835L13.3371 5.56518L13.3328 5.55213L12.3841 5.86835ZM11.6549 5.45419L11.491 6.44067L11.4952 6.44135L11.6549 5.45419ZM9.79407 5.14502L9.6276 6.13107L9.63018 6.1315L9.79407 5.14502ZM8.65074 4.29919L9.54517 3.85197L8.65074 4.29919ZM7.62407 2.24585L6.72965 2.69307V2.69307L7.62407 2.24585ZM6.38157 2.24585L7.27498 2.6951L7.27832 2.68846L7.28155 2.68178L6.38157 2.24585ZM5.34907 4.29919L4.45566 3.84994L4.45465 3.85197L5.34907 4.29919ZM4.20574 5.14502L4.37014 6.13142L4.37221 6.13106L4.20574 5.14502ZM2.35074 5.45419L2.51043 6.44137L2.51514 6.44058L2.35074 5.45419ZM1.97741 6.62669L2.68455 5.91954L2.67719 5.91233L1.97741 6.62669ZM3.42407 8.07335L2.71697 8.78046H2.71697L3.42407 8.07335ZM3.84407 9.53752L4.81836 9.76284L4.81886 9.76066L3.84407 9.53752ZM3.42991 11.3284L4.40396 11.5546L4.40419 11.5537L3.42991 11.3284ZM4.46241 12.0809L4.96385 12.9461L4.97181 12.9414L4.46241 12.0809ZM6.20657 11.0484L6.716 11.9089L6.72438 11.9039L6.20657 11.0484ZM10.3016 12.2242C10.2118 12.2242 9.98891 12.1961 9.60693 11.9714L8.59289 13.6953C9.20257 14.0539 9.77297 14.2242 10.3016 14.2242V12.2242ZM9.60931 11.9728L7.86515 10.9403L6.84633 12.6614L8.5905 13.6939L9.60931 11.9728ZM7.85787 10.9361C7.5598 10.763 7.23189 10.7221 7.00064 10.7221C6.7722 10.7221 6.43774 10.762 6.13541 10.9434L7.1644 12.6583C7.08911 12.7035 7.03375 12.7162 7.02145 12.7189C7.01189 12.721 7.00599 12.7217 7.00374 12.7219C7.00244 12.722 7.00163 12.7221 7.00125 12.7221C7.00086 12.7221 7.00068 12.7221 7.00064 12.7221C7.00059 12.7221 7.00048 12.7221 7.00023 12.7221C6.99998 12.7221 6.99938 12.722 6.99837 12.7219C6.99666 12.7218 6.99168 12.7212 6.98335 12.7194C6.97284 12.7171 6.92303 12.706 6.8536 12.6656L7.85787 10.9361ZM6.14176 10.9396L4.39176 11.9721L5.40805 13.6946L7.15805 12.6621L6.14176 10.9396ZM4.3897 11.9733C3.99823 12.2055 3.77406 12.225 3.68894 12.2225C3.60915 12.22 3.57854 12.1965 3.57269 12.1923L2.40045 13.8127C2.66877 14.0068 3.07858 14.205 3.62879 14.2215C4.17367 14.2379 4.76909 14.0737 5.41011 13.6934L4.3897 11.9733ZM3.58096 12.1983C3.57888 12.1968 3.54663 12.1753 3.51977 12.0986C3.49153 12.0181 3.44245 11.7989 3.54589 11.3588L1.59892 10.9013C1.42819 11.6278 1.45203 12.2457 1.63234 12.7602C1.81401 13.2785 2.12593 13.6099 2.39218 13.8067L3.58096 12.1983ZM3.54669 11.3553L3.96086 9.56451L2.01229 9.11386L1.59812 10.9047L3.54669 11.3553ZM3.95671 9.58172C4.03975 9.24956 3.98404 8.92819 3.92388 8.72016C3.86261 8.50823 3.73976 8.21733 3.50701 7.98458L2.0928 9.39879C2.03757 9.34356 2.01427 9.29995 2.00965 9.29116C2.00586 9.28396 2.00403 9.27952 2.00341 9.27798C2.00276 9.27634 2.0026 9.27573 2.00259 9.27571C2.00259 9.27571 2.00228 9.27468 2.0018 9.2721C2.00135 9.26965 2.00031 9.26353 1.99956 9.25351C1.99861 9.24073 1.99485 9.18298 2.01643 9.09665L3.95671 9.58172ZM3.50701 7.98458L2.06035 6.53791L0.646133 7.95213L2.0928 9.39879L3.50701 7.98458ZM2.06035 6.53791C1.81286 6.29043 1.75389 6.1186 1.73766 6.04623C1.72071 5.97065 1.73316 5.92525 1.7379 5.91076L-0.163089 5.28928C-0.257517 5.57812 -0.323815 5.99356 -0.213886 6.48381C-0.10324 6.97727 0.170286 7.47628 0.646132 7.95213L2.06035 6.53791ZM1.7379 5.91076C1.74391 5.89237 1.7626 5.84506 1.82286 5.79128C1.88044 5.73991 2.02935 5.63457 2.37116 5.57693L2.03865 3.60477C1.37712 3.71631 0.866872 3.96388 0.491327 4.29896C0.118467 4.63165 -0.0699353 5.00434 -0.163089 5.28928L1.7379 5.91076ZM2.3688 5.57733L4.22964 5.26816L3.90184 3.29521L2.04101 3.60438L2.3688 5.57733ZM4.23014 5.26808C4.5367 5.21699 4.79191 5.0636 4.95077 4.94538C5.10828 4.82816 5.33173 4.62604 5.46841 4.34217L3.6664 3.47454C3.70315 3.39823 3.73973 3.35846 3.74587 3.35179C3.7559 3.3409 3.75961 3.33878 3.75675 3.34091C3.75394 3.343 3.75651 3.34045 3.76873 3.33449C3.77615 3.33088 3.82188 3.30854 3.90134 3.29529L4.23014 5.26808ZM5.46133 4.35658L6.49383 2.29741L4.70599 1.40096L3.67349 3.46013L5.46133 4.35658ZM6.49544 2.29417C6.65777 1.96749 6.80721 1.85241 6.87273 1.81271C6.94038 1.77173 6.98688 1.77002 6.99991 1.77002V-0.22998C6.6921 -0.22998 6.27193 -0.161691 5.83646 0.102118C5.39885 0.367217 5.00871 0.791717 4.70437 1.4042L6.49544 2.29417ZM6.99991 1.77002C7.01293 1.77002 7.05943 1.77173 7.12708 1.81271C7.1926 1.85241 7.34204 1.96749 7.50437 2.29417L9.29544 1.4042C8.9911 0.791717 8.60096 0.367217 8.16336 0.102118C7.72788 -0.161691 7.30771 -0.22998 6.99991 -0.22998V1.77002ZM7.50548 2.2964L8.53215 4.34973L10.321 3.45531L9.29433 1.40197L7.50548 2.2964ZM8.53882 4.36284C8.6773 4.62991 8.89244 4.82445 9.05128 4.94174C9.20852 5.05786 9.46325 5.21118 9.76967 5.26225L10.0985 3.28946C10.1779 3.3027 10.2235 3.32502 10.2303 3.32834C10.242 3.33402 10.2436 3.33602 10.2394 3.33288C10.2352 3.3298 10.2366 3.33006 10.244 3.33793C10.2479 3.34207 10.2798 3.3756 10.3143 3.4422L8.53882 4.36284ZM9.77017 5.26233L11.631 5.5715L11.9588 3.59854L10.098 3.28938L9.77017 5.26233ZM11.6296 5.57126C11.9756 5.62926 12.1251 5.73526 12.1813 5.78545C12.2401 5.83789 12.2543 5.88085 12.2566 5.88827L14.1682 5.3001C14.0771 5.00419 13.8872 4.62715 13.5129 4.29313C13.136 3.95686 12.6234 3.70994 11.9602 3.59878L11.6296 5.57126ZM12.2566 5.88827C12.2636 5.9109 12.2754 5.96164 12.2578 6.04039C12.2409 6.1158 12.1812 6.28833 11.9366 6.53495L13.3565 7.94342C13.8294 7.46671 14.0994 6.96841 14.2093 6.47798C14.3185 5.9909 14.2546 5.58081 14.1682 5.3001L12.2566 5.88827ZM11.938 6.5335L10.4914 7.986L11.9084 9.39737L13.3551 7.94487L11.938 6.5335ZM10.4928 7.98458C10.2581 8.21932 10.137 8.51116 10.077 8.7218C10.0164 8.93455 9.96919 9.2364 10.035 9.54669L11.9915 9.13168C12.0063 9.20171 12.0031 9.24639 12.0024 9.25532C12.0018 9.26261 12.0011 9.26677 12.0008 9.26809C12.0007 9.26889 12.0006 9.26933 12.0006 9.26948C12.0005 9.26964 12.0005 9.26969 12.0005 9.2697C12.0005 9.26971 12.0005 9.26986 12.0003 9.2702C12.0002 9.27054 12 9.27126 11.9995 9.2724C11.9988 9.27438 11.9967 9.27948 11.9925 9.28747C11.9869 9.29821 11.9628 9.34303 11.907 9.39879L10.4928 7.98458ZM10.039 9.56451L10.4531 11.3553L12.4017 10.9047L11.9875 9.11386L10.039 9.56451ZM10.4529 11.3542C10.5546 11.7965 10.5059 12.018 10.4771 12.1007C10.4619 12.1443 10.4461 12.1679 10.4375 12.1791C10.4281 12.1912 10.4208 12.1969 10.4188 12.1983L11.6076 13.8067C11.8768 13.6077 12.1861 13.275 12.366 12.7581C12.5443 12.2458 12.5686 11.6302 12.402 10.9059L10.4529 11.3542ZM10.4289 12.191C10.419 12.1981 10.4065 12.2055 10.3903 12.2112C10.3757 12.2165 10.3481 12.2242 10.3016 12.2242V14.2242C10.8861 14.2242 11.3194 14.0143 11.5975 13.8141L10.4289 12.191ZM6.99991 11.8442C7.13411 11.8442 7.23923 11.8791 7.29109 11.9097L8.30706 10.187C7.90392 9.94924 7.43737 9.84419 6.99991 9.84419V11.8442ZM7.28967 11.9089L9.03383 12.9414L10.0526 11.2203L8.30848 10.1878L7.28967 11.9089ZM9.0302 12.9392C9.35709 13.1346 9.68152 13.2679 9.9957 13.3212C10.2754 13.3687 10.7033 13.3762 11.0753 13.1104L9.91283 11.483C10.0464 11.3876 10.1685 11.3601 10.2295 11.3518C10.2631 11.3472 10.2887 11.3468 10.3046 11.3473C10.3207 11.3478 10.3295 11.3493 10.3304 11.3494C10.3312 11.3496 10.3082 11.3456 10.2597 11.3262C10.2117 11.307 10.1439 11.2749 10.0563 11.2225L9.0302 12.9392ZM11.0753 13.1104C11.4705 12.8281 11.5852 12.3908 11.6203 12.1254C11.6613 11.8155 11.6328 11.4719 11.5515 11.1093L9.60002 11.5474C9.62272 11.6485 9.63299 11.7254 9.6369 11.7799C9.63884 11.807 9.63912 11.8274 9.63882 11.8416C9.63867 11.8486 9.63838 11.8539 9.63812 11.8575C9.63785 11.8611 9.63762 11.8628 9.63762 11.8628C9.63762 11.8628 9.63789 11.8608 9.63865 11.857C9.63941 11.8531 9.64072 11.8472 9.64287 11.8393C9.64703 11.8241 9.65514 11.7986 9.67029 11.7662C9.69755 11.7077 9.76599 11.5878 9.91283 11.483L11.0753 13.1104ZM11.55 11.103L11.1359 9.3122L9.18729 9.76284L9.60145 11.5537L11.55 11.103ZM11.1364 9.31438C11.1031 9.16888 11.1794 8.89161 11.2945 8.77459L9.86865 7.37211C9.28375 7.96676 8.99843 8.93783 9.18679 9.76066L11.1364 9.31438ZM11.2887 8.78046L12.7353 7.33379L11.3211 5.91958L9.87447 7.36625L11.2887 8.78046ZM12.7353 7.33379C12.9346 7.13452 13.1182 6.89963 13.2415 6.63513C13.359 6.38324 13.4685 5.99876 13.3411 5.57835L11.427 6.15836C11.392 6.0428 11.3948 5.94589 11.4034 5.88578C11.4118 5.82717 11.4268 5.79433 11.4289 5.78991C11.4312 5.78499 11.4077 5.83301 11.3211 5.91958L12.7353 7.33379ZM13.3328 5.55213C13.1944 5.13715 12.885 4.88512 12.6414 4.74553C12.3856 4.59894 12.097 4.5127 11.8146 4.46702L11.4952 6.44135C11.6095 6.45984 11.6533 6.48443 11.6469 6.48076C11.642 6.47794 11.6112 6.45981 11.5712 6.41735C11.5303 6.37397 11.4731 6.2976 11.4354 6.18458L13.3328 5.55213ZM11.8188 4.46771L9.95797 4.15854L9.63018 6.1315L11.491 6.44066L11.8188 4.46771ZM9.96055 4.15897C9.92178 4.15243 9.83059 4.12074 9.725 4.04267C9.61941 3.96461 9.56264 3.88692 9.54517 3.85197L7.75631 4.7464C7.943 5.11978 8.23332 5.4271 8.53606 5.65091C8.8388 5.87472 9.21719 6.06178 9.6276 6.13106L9.96055 4.15897ZM9.54517 3.85197L8.5185 1.79864L6.72965 2.69307L7.75631 4.7464L9.54517 3.85197ZM8.5185 1.79864C8.39022 1.54208 8.22259 1.28839 8.00821 1.08421C7.80786 0.893407 7.4633 0.650853 6.99991 0.650853V2.65085C6.86765 2.65085 6.76855 2.61482 6.71193 2.58666C6.65677 2.55922 6.63041 2.53393 6.6289 2.53249C6.62889 2.53248 6.67126 2.57629 6.72965 2.69307L8.5185 1.79864ZM6.99991 0.650853C6.53638 0.650853 6.19129 0.89343 5.98987 1.08657C5.77464 1.29295 5.60773 1.54951 5.48159 1.80992L7.28155 2.68178C7.33625 2.56886 7.37642 2.52792 7.37411 2.53014C7.3715 2.53264 7.34438 2.55855 7.28858 2.58636C7.23139 2.61486 7.1321 2.65085 6.99991 2.65085V0.650853ZM5.48816 1.79661L4.45566 3.84994L6.24248 4.74843L7.27498 2.6951L5.48816 1.79661ZM4.45465 3.85197C4.43717 3.88692 4.3804 3.96461 4.27481 4.04267C4.16922 4.12074 4.07803 4.15243 4.03926 4.15897L4.37221 6.13106C4.78262 6.06178 5.16101 5.87472 5.46375 5.65091C5.76649 5.42709 6.05681 5.11978 6.2435 4.7464L4.45465 3.85197ZM4.04134 4.15863L2.18634 4.46779L2.51514 6.44058L4.37014 6.13141L4.04134 4.15863ZM2.19105 4.46702C1.90864 4.5127 1.62002 4.59894 1.36424 4.74553C1.12066 4.88512 0.811216 5.13715 0.672889 5.55213L2.57026 6.18458C2.53258 6.2976 2.47538 6.37397 2.43449 6.41735C2.39447 6.45981 2.36363 6.47794 2.3587 6.48076C2.3523 6.48443 2.39617 6.45984 2.51043 6.44135L2.19105 4.46702ZM0.672889 5.55213C0.527606 5.98797 0.645125 6.38842 0.762963 6.63953C0.888388 6.9068 1.07559 7.14313 1.27763 7.34104L2.67719 5.91233C2.59339 5.83024 2.57059 5.78365 2.57352 5.78988C2.57586 5.79487 2.59197 5.82994 2.60056 5.89225C2.60936 5.95619 2.61149 6.06086 2.57026 6.18458L0.672889 5.55213ZM1.2703 7.33379L2.71697 8.78046L4.13118 7.36625L2.68451 5.91958L1.2703 7.33379ZM2.71697 8.78046C2.7491 8.81259 2.80747 8.89778 2.84566 9.03091C2.88382 9.16389 2.87986 9.26817 2.86929 9.31438L4.81886 9.76066C4.91911 9.3227 4.88016 8.8699 4.76811 8.47934C4.65609 8.08893 4.44905 7.68411 4.13118 7.36625L2.71697 8.78046ZM2.86979 9.3122L2.45562 11.103L4.40419 11.5537L4.81836 9.76284L2.86979 9.3122ZM2.45585 11.1021C2.37039 11.4699 2.34053 11.818 2.38383 12.1326C2.42205 12.4104 2.5444 12.8348 2.93033 13.1104L4.09281 11.483C4.23293 11.583 4.30097 11.6969 4.32984 11.7571C4.34554 11.7898 4.35423 11.8159 4.35889 11.8324C4.3636 11.849 4.36499 11.8587 4.36515 11.8599C4.36536 11.8614 4.36217 11.8381 4.36612 11.7847C4.37001 11.732 4.3804 11.6561 4.40396 11.5546L2.45585 11.1021ZM2.93033 13.1104C3.30809 13.3802 3.73997 13.366 4.01292 13.3182C4.32089 13.2642 4.64021 13.1336 4.96383 12.9461L3.96098 11.2157C3.86916 11.2689 3.79781 11.3023 3.7465 11.3226C3.72106 11.3326 3.70166 11.339 3.68811 11.343C3.6745 11.347 3.6679 11.3481 3.66794 11.3481C3.66803 11.3481 3.67009 11.3478 3.67403 11.3473C3.67795 11.3469 3.68403 11.3464 3.69212 11.346C3.70786 11.3454 3.7339 11.3456 3.76834 11.35C3.83169 11.3583 3.95688 11.3859 4.09281 11.483L2.93033 13.1104ZM4.97181 12.9414L6.71598 11.9089L5.69717 10.1878L3.953 11.2203L4.97181 12.9414ZM6.72438 11.9039C6.76337 11.8802 6.86296 11.8442 6.99991 11.8442V9.84419C6.56519 9.84419 6.0931 9.94812 5.68877 10.1929L6.72438 11.9039Z" fill="#18A0FB" mask="url(#path-1-inside-1_9_10640)"/>
</svg>
