<svg width="14" height="14" viewBox="0 0 14 14" fill="none" xmlns="http://www.w3.org/2000/svg">
<mask id="path-1-inside-1_9_10637" fill="white">
<path d="M7.00593 9.91675C6.5101 9.91675 6.00843 9.78841 5.6176 9.53758L2.10593 7.24508C1.4526 6.81925 1.06177 6.10175 1.06177 5.32008C1.06177 4.53841 1.4526 3.82091 2.10593 3.39508L5.62343 1.10841C6.4051 0.600915 7.62427 0.600915 8.4001 1.11425L11.8943 3.40675C12.5418 3.83258 12.9326 4.55008 12.9326 5.32591C12.9326 6.10175 12.5418 6.81925 11.8943 7.24508L8.4001 9.53758C8.00927 9.79425 7.5076 9.91675 7.00593 9.91675ZM7.00593 1.60425C6.67343 1.60425 6.34093 1.68008 6.10177 1.84341L2.5901 4.13008C2.18177 4.39841 1.9426 4.83008 1.9426 5.32008C1.9426 5.81008 2.17593 6.24175 2.5901 6.51008L6.10177 8.80258C6.58593 9.11758 7.4376 9.11758 7.92177 8.80258L11.4159 6.51008C11.8243 6.24175 12.0576 5.81008 12.0576 5.32008C12.0576 4.83008 11.8243 4.39841 11.4159 4.13008L7.92177 1.83758C7.67677 1.68591 7.34427 1.60425 7.00593 1.60425Z"/>
</mask>
<path d="M7.00593 9.91675C6.5101 9.91675 6.00843 9.78841 5.6176 9.53758L2.10593 7.24508C1.4526 6.81925 1.06177 6.10175 1.06177 5.32008C1.06177 4.53841 1.4526 3.82091 2.10593 3.39508L5.62343 1.10841C6.4051 0.600915 7.62427 0.600915 8.4001 1.11425L11.8943 3.40675C12.5418 3.83258 12.9326 4.55008 12.9326 5.32591C12.9326 6.10175 12.5418 6.81925 11.8943 7.24508L8.4001 9.53758C8.00927 9.79425 7.5076 9.91675 7.00593 9.91675ZM7.00593 1.60425C6.67343 1.60425 6.34093 1.68008 6.10177 1.84341L2.5901 4.13008C2.18177 4.39841 1.9426 4.83008 1.9426 5.32008C1.9426 5.81008 2.17593 6.24175 2.5901 6.51008L6.10177 8.80258C6.58593 9.11758 7.4376 9.11758 7.92177 8.80258L11.4159 6.51008C11.8243 6.24175 12.0576 5.81008 12.0576 5.32008C12.0576 4.83008 11.8243 4.39841 11.4159 4.13008L7.92177 1.83758C7.67677 1.68591 7.34427 1.60425 7.00593 1.60425Z" fill="#18A0FB"/>
<path d="M5.6176 9.53758L5.07093 10.375L5.07748 10.3792L5.6176 9.53758ZM2.10593 7.24508L2.65258 6.40772L2.65197 6.40732L2.10593 7.24508ZM2.10593 3.39508L1.5609 2.55667L1.55989 2.55732L2.10593 3.39508ZM5.62343 1.10841L5.07889 0.269685L5.0784 0.270003L5.62343 1.10841ZM8.4001 1.11425L7.84829 1.94823L7.85154 1.95036L8.4001 1.11425ZM11.8943 3.40675L12.4437 2.57124L12.4428 2.57064L11.8943 3.40675ZM11.8943 7.24508L12.4428 8.08119L12.4437 8.08059L11.8943 7.24508ZM8.4001 9.53758L7.85154 8.70147L7.85117 8.70171L8.4001 9.53758ZM6.10177 1.84341L6.64744 2.68141L6.65665 2.67541L6.66573 2.66922L6.10177 1.84341ZM2.5901 4.13008L2.04442 3.29208L2.04092 3.29438L2.5901 4.13008ZM2.5901 6.51008L3.13675 5.67271L3.13384 5.67083L2.5901 6.51008ZM6.10177 8.80258L5.55512 9.63994L5.55642 9.64079L6.10177 8.80258ZM7.92177 8.80258L8.46711 9.6408L8.47033 9.63869L7.92177 8.80258ZM11.4159 6.51008L11.9645 7.34619L11.9651 7.34579L11.4159 6.51008ZM11.4159 4.13008L11.9651 3.29438L11.9645 3.29397L11.4159 4.13008ZM7.92177 1.83758L8.47033 1.00147L8.45932 0.994248L8.44812 0.987316L7.92177 1.83758ZM7.00593 8.91675C6.66845 8.91675 6.3616 8.82684 6.15772 8.69599L5.07748 10.3792C5.65527 10.75 6.35176 10.9167 7.00593 10.9167V8.91675ZM6.16425 8.70022L2.65258 6.40772L1.55928 8.08244L5.07095 10.3749L6.16425 8.70022ZM2.65197 6.40732C2.28068 6.16532 2.06177 5.76235 2.06177 5.32008H0.0617676C0.0617676 6.44115 0.624524 7.47318 1.55989 8.08284L2.65197 6.40732ZM2.06177 5.32008C2.06177 4.87782 2.28068 4.47485 2.65197 4.23284L1.55989 2.55732C0.624524 3.16698 0.0617676 4.19901 0.0617676 5.32008H2.06177ZM2.65097 4.23349L6.16847 1.94683L5.0784 0.270003L1.5609 2.55667L2.65097 4.23349ZM6.16798 1.94714C6.36801 1.81728 6.67008 1.72802 7.0125 1.72852C7.35511 1.72902 7.65328 1.81919 7.8483 1.94822L8.9519 0.280273C8.37108 -0.104028 7.67176 -0.270522 7.01541 -0.27148C6.35887 -0.272439 5.66053 -0.107948 5.07889 0.269685L6.16798 1.94714ZM7.85154 1.95036L11.3457 4.24286L12.4428 2.57064L8.94867 0.27814L7.85154 1.95036ZM11.3448 4.24226C11.7138 4.48497 11.9326 4.88995 11.9326 5.32591H13.9326C13.9326 4.21021 13.3697 3.18019 12.4437 2.57124L11.3448 4.24226ZM11.9326 5.32591C11.9326 5.76188 11.7138 6.16686 11.3448 6.40957L12.4437 8.08059C13.3697 7.47163 13.9326 6.44162 13.9326 5.32591H11.9326ZM11.3457 6.40897L7.85154 8.70147L8.94867 10.3737L12.4428 8.08119L11.3457 6.40897ZM7.85117 8.70171C7.65846 8.82827 7.35922 8.91675 7.00593 8.91675V10.9167C7.65598 10.9167 8.36007 10.7602 8.94903 10.3735L7.85117 8.70171ZM7.00593 0.604248C6.54788 0.604248 5.99625 0.704528 5.53781 1.01761L6.66573 2.66922C6.68562 2.65563 6.79899 2.60425 7.00593 2.60425V0.604248ZM5.55609 1.00542L2.04443 3.29208L3.13577 4.96808L6.64744 2.68141L5.55609 1.00542ZM2.04092 3.29438C1.35839 3.7429 0.942601 4.48487 0.942601 5.32008H2.9426C2.9426 5.17529 3.00514 5.05393 3.13928 4.96579L2.04092 3.29438ZM0.942601 5.32008C0.942601 6.14852 1.34721 6.89636 2.04636 7.34933L3.13384 5.67083C3.00466 5.58713 2.9426 5.47164 2.9426 5.32008H0.942601ZM2.04345 7.34744L5.55512 9.63994L6.64842 7.96522L3.13675 5.67272L2.04345 7.34744ZM5.55642 9.64079C6.00466 9.93242 6.54418 10.0388 7.01177 10.0388C7.47936 10.0388 8.01887 9.93242 8.46711 9.64079L7.37642 7.96437C7.34049 7.98774 7.2121 8.03883 7.01177 8.03883C6.81144 8.03883 6.68304 7.98774 6.64711 7.96437L5.55642 9.64079ZM8.47033 9.63869L11.9645 7.34619L10.8674 5.67397L7.3732 7.96647L8.47033 9.63869ZM11.9651 7.34579C12.6547 6.89262 13.0576 6.14692 13.0576 5.32008H11.0576C11.0576 5.47324 10.9938 5.59087 10.8668 5.67438L11.9651 7.34579ZM13.0576 5.32008C13.0576 4.49324 12.6547 3.74754 11.9651 3.29438L10.8668 4.96579C10.9938 5.04929 11.0576 5.16692 11.0576 5.32008H13.0576ZM11.9645 3.29397L8.47033 1.00147L7.3732 2.67369L10.8674 4.96619L11.9645 3.29397ZM8.44812 0.987316C8.01154 0.717051 7.48649 0.604248 7.00593 0.604248V2.60425C7.20204 2.60425 7.342 2.65478 7.39541 2.68785L8.44812 0.987316Z" fill="#18A0FB" mask="url(#path-1-inside-1_9_10637)"/>
<path d="M7.00002 13.2707C6.74336 13.2707 6.48086 13.2357 6.27086 13.1657L4.41002 12.5474C3.52919 12.2557 2.83502 11.2932 2.84086 10.3657L2.84669 7.62988C2.84669 7.39072 3.04502 7.19238 3.28419 7.19238C3.52336 7.19238 3.72169 7.39072 3.72169 7.62988L3.71586 10.3657C3.71586 10.914 4.17086 11.544 4.69002 11.719L6.55086 12.3374C6.78419 12.4132 7.21586 12.4132 7.44919 12.3374L9.31002 11.719C9.82919 11.544 10.2842 10.914 10.2842 10.3715V7.66488C10.2842 7.42572 10.4825 7.22738 10.7217 7.22738C10.9609 7.22738 11.1592 7.42572 11.1592 7.66488V10.3715C11.1592 11.299 10.4709 12.2557 9.59002 12.5532L7.72919 13.1715C7.51919 13.2357 7.25669 13.2707 7.00002 13.2707Z" fill="#18A0FB"/>
<path d="M12.4834 9.1875C12.2442 9.1875 12.0459 8.98917 12.0459 8.75V5.25C12.0459 5.01083 12.2442 4.8125 12.4834 4.8125C12.7226 4.8125 12.9209 5.01083 12.9209 5.25V8.75C12.9209 8.98917 12.7226 9.1875 12.4834 9.1875Z" fill="#18A0FB"/>
</svg>
